<svg xmlns="http://www.w3.org/2000/svg" xmlns:xlink="http://www.w3.org/1999/xlink" width="500" zoomAndPan="magnify" viewBox="0 0 375 374.999991" height="500" preserveAspectRatio="xMidYMid meet" version="1.0"><defs><g/><clipPath id="id1"><path d="M 205 131 L 354 131 L 354 181 L 205 181 Z M 205 131 " clip-rule="nonzero"/></clipPath><clipPath id="id2"><path d="M 202.894531 170.835938 L 352.976562 131.117188 L 357.390625 147.796875 L 207.308594 187.511719 Z M 202.894531 170.835938 " clip-rule="nonzero"/></clipPath><clipPath id="id3"><path d="M 353.148438 131.074219 L 203.0625 170.789062 L 207.476562 187.464844 L 357.5625 147.75 Z M 353.148438 131.074219 " clip-rule="nonzero"/></clipPath></defs><rect x="-37.5" width="450" fill="#ffffff" y="-37.499999" height="449.999989" fill-opacity="1"/><rect x="-37.5" width="450" fill="#000000" y="-37.499999" height="449.999989" fill-opacity="1"/><rect x="-37.5" width="450" fill="#ffffff" y="-37.499999" height="449.999989" fill-opacity="1"/><rect x="-37.5" width="450" fill="#000000" y="-37.499999" height="449.999989" fill-opacity="1"/><g clip-path="url(#id1)"><g clip-path="url(#id2)"><g clip-path="url(#id3)"><path fill="#faf2ed" d="M 353.292969 131.621094 C 352.324219 132.769531 352.613281 133.195312 351.933594 133.644531 C 347.976562 136.144531 343.394531 141.539062 341.582031 143.53125 C 311.902344 175.707031 260.839844 148.226562 207.132812 180.5625 C 206.667969 180.835938 205.085938 180.898438 205.636719 179.386719 C 212.832031 173.804688 220.789062 168.289062 238.804688 163.195312 C 258.660156 157.554688 301.324219 159.789062 318.335938 154.816406 C 340.398438 148.351562 344.554688 132.957031 353.273438 131.65625 Z M 353.292969 131.621094 " fill-opacity="1" fill-rule="evenodd"/></g></g></g><g fill="#faf2ed" fill-opacity="1"><g transform="translate(101.343543, 187.843274)"><g><path d="M 55.855469 -11.289062 C 55.726562 -11.222656 55.597656 -11.160156 55.46875 -11.027344 C 53.976562 -10.121094 52.484375 -9.210938 50.992188 -8.304688 C 47.8125 -6.359375 44.699219 -4.347656 41.261719 -2.855469 C 38.601562 -1.6875 35.875 -0.972656 32.957031 -1.039062 C 31.074219 -1.039062 30.816406 -1.425781 31.203125 -3.179688 C 31.269531 -3.4375 31.335938 -3.699219 31.398438 -3.957031 C 31.59375 -4.734375 31.855469 -5.515625 31.917969 -6.292969 C 31.984375 -7.589844 31.464844 -8.628906 30.425781 -9.40625 C 29.386719 -10.121094 28.546875 -9.601562 27.636719 -9.148438 C 25.949219 -8.238281 24.394531 -7.070312 22.769531 -6.035156 C 22.511719 -5.902344 22.316406 -5.515625 21.796875 -5.773438 C 21.992188 -6.875 22.769531 -7.65625 23.226562 -8.691406 C 24.523438 -11.484375 26.015625 -14.207031 27.832031 -16.800781 C 29.84375 -19.59375 31.722656 -22.382812 33.671875 -25.238281 C 34.644531 -26.726562 35.488281 -28.285156 35.941406 -30.101562 C 36.65625 -33.214844 33.800781 -36.265625 30.621094 -35.550781 C 27.832031 -34.902344 25.300781 -33.734375 22.964844 -32.113281 C 18.359375 -28.804688 14.46875 -24.652344 10.703125 -20.4375 C 8.109375 -17.453125 5.902344 -14.207031 3.699219 -10.964844 C 3.375 -10.507812 3.113281 -9.992188 2.464844 -9.667969 C 2.464844 -10.507812 2.789062 -11.160156 3.050781 -11.808594 C 3.566406 -12.910156 4.023438 -14.011719 4.605469 -15.050781 C 4.996094 -15.699219 4.605469 -16.609375 3.828125 -17.0625 C 3.179688 -17.453125 2.726562 -17.191406 2.269531 -16.609375 C 1.75 -15.894531 1.234375 -15.179688 0.84375 -14.335938 C -0.582031 -11.160156 -0.972656 -7.785156 -1.363281 -4.410156 C -1.492188 -3.4375 -1.039062 -2.726562 -0.390625 -2.140625 C 0.324219 -1.558594 0.714844 -1.621094 1.234375 -2.398438 C 2.140625 -3.761719 2.984375 -5.191406 3.828125 -6.617188 C 8.367188 -14.011719 13.558594 -20.890625 20.371094 -26.339844 C 23.355469 -28.675781 26.46875 -30.816406 30.039062 -32.113281 C 31.011719 -32.4375 31.917969 -32.828125 33.152344 -32.632812 C 33.085938 -31.722656 32.761719 -31.074219 32.4375 -30.363281 C 31.984375 -29.453125 31.398438 -28.546875 30.878906 -27.636719 C 28.804688 -23.9375 26.078125 -20.695312 23.746094 -17.191406 C 21.277344 -13.492188 19.269531 -9.601562 17.839844 -5.382812 C 17.582031 -4.671875 17.320312 -3.890625 17.386719 -3.050781 C 17.453125 -2.011719 18.101562 -1.425781 18.945312 -0.972656 C 19.722656 -0.582031 20.109375 -1.296875 20.628906 -1.6875 C 22.578125 -3.308594 24.652344 -4.867188 26.921875 -6.035156 C 27.441406 -6.359375 28.027344 -6.746094 28.738281 -6.617188 C 28.675781 -5.578125 28.609375 -4.734375 28.546875 -3.828125 C 28.285156 -1.101562 31.074219 1.621094 34.058594 0.972656 C 37.5625 0.257812 40.804688 -1.039062 43.855469 -2.789062 C 46.644531 -4.347656 49.371094 -6.097656 52.09375 -7.71875 C 53.523438 -8.628906 54.882812 -9.535156 56.3125 -10.378906 C 56.570312 -10.574219 56.765625 -10.769531 56.507812 -11.160156 C 56.375 -11.351562 56.117188 -11.417969 55.855469 -11.289062 Z M 55.855469 -11.289062 "/></g></g></g><g fill="#faf2ed" fill-opacity="1"><g transform="translate(157.265746, 187.843274)"><g><path d="M 53.78125 -10.835938 C 54.234375 -11.289062 54.105469 -11.675781 53.457031 -11.871094 C 52.875 -12.132812 52.417969 -11.871094 51.964844 -11.613281 C 49.824219 -10.316406 47.878906 -8.757812 45.996094 -7.136719 C 43.402344 -4.929688 40.675781 -2.855469 37.5625 -1.296875 C 32.046875 1.492188 26.273438 3.699219 20.175781 4.867188 C 16.285156 5.644531 12.328125 6.035156 8.367188 5.578125 C 5.773438 5.253906 3.4375 4.542969 1.234375 3.179688 C 0.777344 2.917969 0.257812 2.726562 -0.0664062 2.140625 C 0.582031 1.882812 1.167969 1.621094 1.75 1.425781 C 3.050781 0.972656 4.28125 0.453125 5.515625 -0.128906 C 9.019531 -1.945312 12.390625 -4.085938 15.636719 -6.292969 C 20.371094 -9.535156 24.78125 -13.234375 29 -17.0625 C 32.695312 -20.371094 35.941406 -24.199219 39.832031 -27.246094 C 40.289062 -27.636719 40.15625 -28.027344 39.769531 -28.21875 C 38.859375 -28.738281 37.953125 -28.804688 37.042969 -28.21875 C 36.394531 -27.765625 35.8125 -27.246094 35.226562 -26.664062 C 31.140625 -22.902344 27.3125 -18.878906 23.160156 -15.246094 C 16.996094 -9.859375 10.378906 -5.058594 2.984375 -1.425781 C 1.492188 -0.714844 -0.0664062 0.0664062 -1.816406 0.453125 C -1.816406 -0.195312 -1.558594 -0.582031 -1.296875 -1.039062 C 1.363281 -6.8125 4.085938 -12.519531 6.683594 -18.359375 C 9.992188 -25.753906 13.234375 -33.28125 16.996094 -40.546875 C 20.242188 -46.90625 23.875 -53.003906 28.21875 -58.648438 C 30.296875 -61.371094 32.308594 -64.226562 35.8125 -65.394531 C 35.488281 -65.976562 35.03125 -66.109375 34.449219 -66.238281 C 33.539062 -66.367188 32.761719 -66.042969 31.984375 -65.652344 C 29.519531 -64.292969 27.636719 -62.28125 25.886719 -60.203125 C 20.109375 -53.261719 15.699219 -45.542969 11.808594 -37.496094 C 9.082031 -32.046875 6.617188 -26.46875 4.152344 -20.890625 C 1.816406 -15.636719 -0.648438 -10.507812 -3.050781 -5.320312 C -3.566406 -4.152344 -4.152344 -3.050781 -4.671875 -1.882812 C -5.253906 -0.777344 -5.253906 -0.777344 -6.359375 -1.234375 C -7.265625 -1.558594 -8.175781 -1.816406 -9.148438 -1.945312 C -10.25 -2.140625 -11.417969 -2.074219 -12.390625 -1.492188 C -14.011719 -0.519531 -14.011719 1.363281 -12.457031 2.335938 C -11.613281 2.855469 -10.703125 3.113281 -9.796875 3.242188 C -9.082031 3.308594 -8.367188 3.4375 -7.71875 3.503906 C -7.589844 3.890625 -7.71875 4.152344 -7.851562 4.347656 C -10.378906 9.210938 -12.976562 14.011719 -16.023438 18.554688 C -17.90625 21.410156 -19.980469 24.261719 -22.511719 26.664062 C -23.550781 27.703125 -24.78125 28.609375 -26.210938 29.0625 C -26.535156 29.195312 -27.183594 28.933594 -27.183594 29.519531 C -27.183594 30.039062 -26.597656 30.230469 -26.210938 30.363281 C -26.015625 30.425781 -25.820312 30.425781 -25.625 30.425781 C -24.132812 30.425781 -22.578125 30.167969 -21.214844 29.386719 C -19.269531 28.21875 -17.777344 26.46875 -16.347656 24.71875 C -12.519531 19.785156 -9.210938 14.46875 -6.359375 8.824219 C -5.449219 7.070312 -4.476562 5.320312 -3.503906 3.566406 C -3.050781 2.660156 -2.660156 2.59375 -1.6875 3.179688 C -1.621094 3.242188 -1.492188 3.308594 -1.363281 3.375 C 1.167969 4.929688 3.761719 6.292969 6.683594 6.746094 C 12.132812 7.65625 17.515625 7.394531 22.835938 6.164062 C 26.726562 5.253906 30.492188 3.828125 34.125 2.140625 C 36.65625 0.972656 39.25 -0.128906 41.714844 -1.558594 C 45.476562 -3.699219 48.722656 -6.550781 52.09375 -9.277344 C 52.679688 -9.730469 53.261719 -10.25 53.78125 -10.835938 Z M -6.097656 0.777344 C -6.226562 1.296875 -6.488281 1.6875 -7.070312 1.816406 C -7.851562 1.945312 -8.691406 1.945312 -9.472656 1.882812 C -9.859375 1.882812 -10.25 1.882812 -10.640625 1.816406 C -11.417969 1.621094 -11.675781 1.167969 -11.351562 0.390625 C -11.027344 -0.453125 -9.859375 -0.972656 -8.757812 -0.714844 C -8.042969 -0.519531 -7.332031 -0.324219 -6.746094 0.0664062 C -6.488281 0.257812 -6.035156 0.324219 -6.097656 0.777344 Z M -6.097656 0.777344 "/></g></g></g><g fill="#faf2ed" fill-opacity="1"><g transform="translate(147.120508, 226.167919)"><g><path d="M 11.558594 -10.78125 L 11.527344 -10.78125 L 6.785156 -1.804688 L 2.109375 -10.78125 L 2.058594 -10.78125 L 0.609375 0.015625 L 0.878906 0.015625 L 2.007812 -8.351562 L 6.210938 -0.269531 L 6.277344 -0.269531 L 10.613281 -8.488281 L 11.609375 0.015625 L 12.824219 0.015625 Z M 11.558594 -10.78125 "/></g></g></g><g fill="#faf2ed" fill-opacity="1"><g transform="translate(166.493581, 226.167919)"><g><path d="M 0.808594 0.015625 L 2.007812 0.015625 L 2.007812 -10.582031 L 0.808594 -10.582031 Z M 3.324219 -6.109375 L 7.679688 -10.582031 L 7.289062 -10.582031 L 2.296875 -5.449219 L 6.96875 0.015625 L 8.554688 0.015625 Z M 3.324219 -6.109375 "/></g></g></g><g fill="#faf2ed" fill-opacity="1"><g transform="translate(181.496017, 226.167919)"><g/></g></g><g fill="#faf2ed" fill-opacity="1"><g transform="translate(191.570949, 226.167919)"><g><path d="M 9.417969 -10.582031 L 9.144531 -10.582031 L 9.144531 -1.601562 L 0.84375 -10.78125 L 0.808594 -10.78125 L 0.808594 0.015625 L 1.078125 0.015625 L 1.078125 -8.859375 L 9.367188 0.320312 L 9.417969 0.320312 Z M 9.417969 -10.582031 "/></g></g></g><g fill="#faf2ed" fill-opacity="1"><g transform="translate(207.737765, 226.167919)"><g><path d="M 8.824219 0.015625 L 10.125 0.015625 L 5.484375 -10.78125 L 5.398438 -10.78125 L 0.589844 0.015625 L 0.960938 0.015625 L 2.867188 -4.234375 L 6.984375 -4.234375 Z M 2.988281 -4.523438 L 4.960938 -8.960938 L 6.867188 -4.523438 Z M 2.988281 -4.523438 "/></g></g></g><g fill="#faf2ed" fill-opacity="1"><g transform="translate(224.326456, 226.167919)"><g><path d="M 8.21875 -10.582031 L 5.011719 -5.199219 L 1.921875 -10.582031 L 0.539062 -10.582031 L 3.949219 -4.605469 L 3.949219 0.015625 L 5.164062 0.015625 L 5.164062 -4.925781 L 8.554688 -10.582031 Z M 8.21875 -10.582031 "/></g></g></g><g fill="#faf2ed" fill-opacity="1"><g transform="translate(239.295144, 226.167919)"><g><path d="M 8.824219 0.015625 L 10.125 0.015625 L 5.484375 -10.78125 L 5.398438 -10.78125 L 0.589844 0.015625 L 0.960938 0.015625 L 2.867188 -4.234375 L 6.984375 -4.234375 Z M 2.988281 -4.523438 L 4.960938 -8.960938 L 6.867188 -4.523438 Z M 2.988281 -4.523438 "/></g></g></g><g fill="#faf2ed" fill-opacity="1"><g transform="translate(255.883835, 226.167919)"><g><path d="M 0.808594 0.015625 L 2.007812 0.015625 L 2.007812 -10.582031 L 0.808594 -10.582031 Z M 3.324219 -6.109375 L 7.679688 -10.582031 L 7.289062 -10.582031 L 2.296875 -5.449219 L 6.96875 0.015625 L 8.554688 0.015625 Z M 3.324219 -6.109375 "/></g></g></g></svg>