<svg xmlns="http://www.w3.org/2000/svg" xmlns:xlink="http://www.w3.org/1999/xlink" width="500" zoomAndPan="magnify" viewBox="0 0 375 374.999991" height="500" preserveAspectRatio="xMidYMid meet" version="1.0"><defs><g/><clipPath id="id1"><path d="M 237 67 L 360 67 L 360 193 L 237 193 Z M 237 67 " clip-rule="nonzero"/></clipPath><clipPath id="id2"><path d="M 360.007812 67.75 L 246.050781 199.242188 L 231.316406 186.46875 L 345.273438 54.980469 Z M 360.007812 67.75 " clip-rule="nonzero"/></clipPath><clipPath id="id3"><path d="M 360.007812 67.75 L 246.050781 199.242188 L 231.316406 186.46875 L 345.273438 54.980469 Z M 360.007812 67.75 " clip-rule="nonzero"/></clipPath></defs><rect x="-37.5" width="450" fill="#000000" y="-37.499999" height="449.999989" fill-opacity="1"/><rect x="-37.5" width="450" fill="#ffffff" y="-37.499999" height="449.999989" fill-opacity="1"/><rect x="-37.5" width="450" fill="#000000" y="-37.499999" height="449.999989" fill-opacity="1"/><g clip-path="url(#id1)"><g clip-path="url(#id2)"><g clip-path="url(#id3)"><path fill="#ffffff" d="M 359.527344 67.332031 C 357.886719 67.738281 357.597656 67.230469 356.808594 67.695312 C 352.332031 70.433594 344.609375 72.363281 341.699219 73.195312 C 294.503906 87.054688 297.296875 152.257812 238.140625 190.261719 C 237.640625 190.59375 236.800781 192.15625 238.597656 192.359375 C 247.792969 187.886719 257.292969 182.621094 271.300781 167 C 286.769531 149.796875 305.449219 105.664062 318.847656 91 C 336.234375 71.980469 353.882812 75.476562 359.480469 67.335938 Z M 359.527344 67.332031 " fill-opacity="1" fill-rule="evenodd"/></g></g></g><g fill="#ffffff" fill-opacity="1"><g transform="translate(42.083011, 191.799148)"><g><path d="M 9.113281 -36.269531 C 11.820312 -49.257812 15.246094 -62.070312 20.207031 -74.339844 C 22.375 -79.574219 24.539062 -84.804688 26.792969 -89.949219 C 27.335938 -91.210938 26.976562 -91.660156 25.894531 -92.023438 C 24.269531 -92.652344 23.636719 -91.570312 23.003906 -90.488281 C 20.75 -86.339844 18.855469 -82.007812 16.960938 -77.679688 C 10.828125 -63.332031 6.945312 -48.355469 3.96875 -33.109375 C 1.894531 -22.734375 0.722656 -12.179688 -0.632812 -1.625 C -0.722656 -0.632812 -0.722656 0.179688 0.269531 0.722656 C 2.074219 1.714844 3.15625 1.261719 3.519531 -0.722656 C 5.140625 -9.832031 7.667969 -18.675781 10.734375 -27.425781 C 14.34375 -37.621094 19.035156 -47.363281 24.179688 -56.929688 C 32.660156 -72.625 42.402344 -87.601562 54.671875 -100.683594 C 61.890625 -108.441406 69.738281 -115.480469 79.300781 -120.441406 C 83 -122.425781 86.789062 -123.960938 91.03125 -124.410156 C 95.449219 -124.773438 97.527344 -123.328125 98.699219 -119.089844 C 99.601562 -115.75 99.421875 -112.320312 98.96875 -108.894531 C 97.617188 -98.878906 94.097656 -89.40625 90.128906 -80.113281 C 84.082031 -65.859375 76.867188 -52.144531 70.191406 -38.164062 C 65.226562 -27.695312 60.445312 -17.140625 57.558594 -5.863281 C 56.835938 -3.15625 56.476562 -0.449219 56.117188 2.34375 C 55.933594 3.246094 56.386719 3.96875 57.289062 4.332031 C 58.191406 4.691406 58.914062 4.78125 59.996094 4.148438 C 61.347656 3.339844 62.070312 1.984375 63.0625 0.8125 C 67.210938 -4.058594 71.996094 -8.300781 77.316406 -12 C 81.105469 -14.617188 84.984375 -17.230469 89.40625 -18.945312 C 91.753906 -19.757812 92.203125 -19.578125 92.652344 -17.050781 C 93.105469 -14.617188 93.195312 -12.179688 93.375 -9.742188 C 93.917969 -2.34375 99.238281 2.074219 106.636719 1.171875 C 110.609375 0.722656 114.488281 -0.359375 118.277344 -1.804688 C 127.117188 -5.140625 135.328125 -9.742188 143.628906 -14.074219 C 144.441406 -14.523438 145.160156 -15.066406 145.972656 -15.515625 C 146.695312 -15.96875 146.425781 -16.328125 145.792969 -16.511719 C 145.25 -16.78125 144.621094 -16.691406 144.078125 -16.511719 C 142.816406 -15.96875 141.460938 -15.515625 140.289062 -14.886719 C 134.785156 -11.820312 129.28125 -8.839844 123.507812 -6.226562 C 117.914062 -3.609375 112.050781 -1.535156 105.824219 -0.8125 C 102.488281 -0.449219 100.773438 -1.535156 99.601562 -4.691406 C 99.421875 -5.414062 99.148438 -6.226562 99.058594 -7.035156 C 98.699219 -9.925781 98.519531 -12.8125 98.15625 -15.699219 C 97.707031 -19.308594 95.8125 -21.019531 92.292969 -21.652344 C 89.316406 -22.101562 86.699219 -21.292969 84.171875 -19.9375 C 77.226562 -16.238281 70.730469 -12.089844 64.777344 -6.855469 C 64.414062 -6.496094 64.144531 -6.042969 63.332031 -5.953125 C 64.867188 -10.917969 66.492188 -15.609375 68.476562 -20.300781 C 73.796875 -33.472656 80.203125 -46.101562 86.519531 -58.824219 C 91.84375 -69.558594 96.984375 -80.382812 100.683594 -91.84375 C 102.9375 -98.699219 104.472656 -105.734375 104.472656 -112.953125 C 104.5625 -121.613281 99.058594 -126.9375 90.398438 -126.757812 C 88.863281 -126.757812 87.242188 -126.578125 85.796875 -126.214844 C 81.105469 -125.042969 76.777344 -122.96875 72.714844 -120.441406 C 63.0625 -114.578125 55.03125 -106.910156 47.816406 -98.429688 C 32.660156 -80.65625 21.109375 -60.625 11.636719 -39.425781 C 10.554688 -36.898438 9.472656 -34.375 8.300781 -31.578125 C 8.210938 -31.9375 8.210938 -32.117188 8.210938 -32.207031 C 8.480469 -33.5625 8.75 -34.914062 9.113281 -36.269531 Z M 9.113281 -36.269531 "/></g></g></g><g fill="#ffffff" fill-opacity="1"><g transform="translate(185.343512, 191.799148)"><g><path d="M 74.789062 -15.066406 C 75.421875 -15.699219 75.242188 -16.238281 74.339844 -16.511719 C 73.527344 -16.871094 72.894531 -16.511719 72.265625 -16.148438 C 69.289062 -14.34375 66.582031 -12.179688 63.964844 -9.925781 C 60.355469 -6.855469 56.566406 -3.96875 52.238281 -1.804688 C 44.566406 2.074219 36.539062 5.140625 28.058594 6.765625 C 22.644531 7.847656 17.140625 8.390625 11.636719 7.757812 C 8.03125 7.308594 4.78125 6.316406 1.714844 4.421875 C 1.082031 4.058594 0.359375 3.789062 -0.0898438 2.976562 C 0.8125 2.617188 1.625 2.253906 2.4375 1.984375 C 4.242188 1.351562 5.953125 0.632812 7.667969 -0.179688 C 12.539062 -2.707031 17.230469 -5.683594 21.742188 -8.75 C 28.328125 -13.261719 34.464844 -18.40625 40.328125 -23.726562 C 45.46875 -28.328125 49.980469 -33.652344 55.394531 -37.890625 C 56.027344 -38.433594 55.84375 -38.972656 55.304688 -39.246094 C 54.039062 -39.964844 52.777344 -40.058594 51.515625 -39.246094 C 50.613281 -38.613281 49.800781 -37.890625 48.988281 -37.078125 C 43.304688 -31.847656 37.980469 -26.253906 32.207031 -21.203125 C 23.636719 -13.714844 14.433594 -7.035156 4.148438 -1.984375 C 2.074219 -0.992188 -0.0898438 0.0898438 -2.527344 0.632812 C -2.527344 -0.269531 -2.164062 -0.8125 -1.804688 -1.445312 C 1.894531 -9.472656 5.683594 -17.414062 9.292969 -25.53125 C 13.894531 -35.816406 18.40625 -46.28125 23.636719 -56.386719 C 28.148438 -65.226562 33.199219 -73.707031 39.246094 -81.558594 C 42.132812 -85.347656 44.929688 -89.316406 49.800781 -90.941406 C 49.347656 -91.753906 48.71875 -91.933594 47.90625 -92.113281 C 46.644531 -92.292969 45.558594 -91.84375 44.476562 -91.300781 C 41.050781 -89.40625 38.433594 -86.609375 35.996094 -83.722656 C 27.96875 -74.070312 21.832031 -63.332031 16.417969 -52.144531 C 12.628906 -44.566406 9.203125 -36.808594 5.773438 -29.050781 C 2.527344 -21.742188 -0.902344 -14.617188 -4.242188 -7.398438 C -4.960938 -5.773438 -5.773438 -4.242188 -6.496094 -2.617188 C -7.308594 -1.082031 -7.308594 -1.082031 -8.839844 -1.714844 C -10.105469 -2.164062 -11.367188 -2.527344 -12.722656 -2.707031 C -14.253906 -2.976562 -15.878906 -2.886719 -17.230469 -2.074219 C -19.488281 -0.722656 -19.488281 1.894531 -17.320312 3.246094 C -16.148438 3.96875 -14.886719 4.332031 -13.621094 4.511719 C -12.628906 4.601562 -11.636719 4.78125 -10.734375 4.871094 C -10.554688 5.414062 -10.734375 5.773438 -10.917969 6.042969 C -14.433594 12.8125 -18.042969 19.488281 -22.285156 25.800781 C -24.898438 29.773438 -27.789062 33.742188 -31.304688 37.078125 C -32.75 38.523438 -34.464844 39.785156 -36.449219 40.417969 C -36.898438 40.597656 -37.800781 40.238281 -37.800781 41.050781 C -37.800781 41.769531 -36.988281 42.042969 -36.449219 42.222656 C -36.175781 42.3125 -35.90625 42.3125 -35.636719 42.3125 C -33.5625 42.3125 -31.394531 41.953125 -29.5 40.867188 C -26.792969 39.246094 -24.71875 36.808594 -22.734375 34.375 C -17.414062 27.515625 -12.8125 20.117188 -8.839844 12.269531 C -7.578125 9.832031 -6.226562 7.398438 -4.871094 4.960938 C -4.242188 3.699219 -3.699219 3.609375 -2.34375 4.421875 C -2.253906 4.511719 -2.074219 4.601562 -1.894531 4.691406 C 1.625 6.855469 5.234375 8.75 9.292969 9.382812 C 16.871094 10.644531 24.359375 10.285156 31.757812 8.570312 C 37.171875 7.308594 42.402344 5.324219 47.453125 2.976562 C 50.972656 1.351562 54.582031 -0.179688 58.011719 -2.164062 C 63.242188 -5.140625 67.753906 -9.113281 72.445312 -12.902344 C 73.257812 -13.53125 74.070312 -14.253906 74.789062 -15.066406 Z M -8.480469 1.082031 C -8.660156 1.804688 -9.023438 2.34375 -9.832031 2.527344 C -10.917969 2.707031 -12.089844 2.707031 -13.171875 2.617188 C -13.714844 2.617188 -14.253906 2.617188 -14.796875 2.527344 C -15.878906 2.253906 -16.238281 1.625 -15.789062 0.542969 C -15.335938 -0.632812 -13.714844 -1.351562 -12.179688 -0.992188 C -11.1875 -0.722656 -10.195312 -0.449219 -9.382812 0.0898438 C -9.023438 0.359375 -8.390625 0.449219 -8.480469 1.082031 Z M -8.480469 1.082031 "/></g></g></g><g fill="#ffffff" fill-opacity="1"><g transform="translate(176.559967, 218.783868)"><g><path d="M 10.0625 -9.386719 L 10.035156 -9.386719 L 5.90625 -1.570312 L 1.835938 -9.386719 L 1.792969 -9.386719 L 0.527344 0.015625 L 0.765625 0.015625 L 1.75 -7.273438 L 5.40625 -0.234375 L 5.464844 -0.234375 L 9.242188 -7.390625 L 10.109375 0.015625 L 11.167969 0.015625 Z M 10.0625 -9.386719 "/></g></g></g><g fill="#ffffff" fill-opacity="1"><g transform="translate(193.42536, 218.783868)"><g><path d="M 0.707031 0.015625 L 1.75 0.015625 L 1.75 -9.210938 L 0.707031 -9.210938 Z M 2.894531 -5.320312 L 6.683594 -9.210938 L 6.347656 -9.210938 L 2 -4.746094 L 6.066406 0.015625 L 7.449219 0.015625 Z M 2.894531 -5.320312 "/></g></g></g><g fill="#ffffff" fill-opacity="1"><g transform="translate(206.486335, 218.783868)"><g/></g></g><g fill="#ffffff" fill-opacity="1"><g transform="translate(215.258161, 218.783868)"><g><path d="M 8.199219 -9.210938 L 7.964844 -9.210938 L 7.964844 -1.394531 L 0.734375 -9.386719 L 0.707031 -9.386719 L 0.707031 0.015625 L 0.941406 0.015625 L 0.941406 -7.714844 L 8.15625 0.277344 L 8.199219 0.277344 Z M 8.199219 -9.210938 "/></g></g></g><g fill="#ffffff" fill-opacity="1"><g transform="translate(229.332676, 218.783868)"><g><path d="M 7.683594 0.015625 L 8.816406 0.015625 L 4.773438 -9.386719 L 4.703125 -9.386719 L 0.515625 0.015625 L 0.835938 0.015625 L 2.496094 -3.6875 L 6.082031 -3.6875 Z M 2.601562 -3.9375 L 4.320312 -7.800781 L 5.980469 -3.9375 Z M 2.601562 -3.9375 "/></g></g></g><g fill="#ffffff" fill-opacity="1"><g transform="translate(243.774403, 218.783868)"><g><path d="M 7.15625 -9.210938 L 4.363281 -4.523438 L 1.675781 -9.210938 L 0.46875 -9.210938 L 3.4375 -4.011719 L 3.4375 0.015625 L 4.496094 0.015625 L 4.496094 -4.289062 L 7.449219 -9.210938 Z M 7.15625 -9.210938 "/></g></g></g><g fill="#ffffff" fill-opacity="1"><g transform="translate(256.806004, 218.783868)"><g><path d="M 7.683594 0.015625 L 8.816406 0.015625 L 4.773438 -9.386719 L 4.703125 -9.386719 L 0.515625 0.015625 L 0.835938 0.015625 L 2.496094 -3.6875 L 6.082031 -3.6875 Z M 2.601562 -3.9375 L 4.320312 -7.800781 L 5.980469 -3.9375 Z M 2.601562 -3.9375 "/></g></g></g><g fill="#ffffff" fill-opacity="1"><g transform="translate(271.247732, 218.783868)"><g><path d="M 0.707031 0.015625 L 1.75 0.015625 L 1.75 -9.210938 L 0.707031 -9.210938 Z M 2.894531 -5.320312 L 6.683594 -9.210938 L 6.347656 -9.210938 L 2 -4.746094 L 6.066406 0.015625 L 7.449219 0.015625 Z M 2.894531 -5.320312 "/></g></g></g></svg>