<svg fill="#000000" xmlns="http://www.w3.org/2000/svg"  viewBox="0 0 32 32" width="14px" height="14px"><path d="M 16 2 C 8.2802734 2 2 8.2802734 2 16 C 2 23.719727 8.2802734 30 16 30 C 23.719727 30 30 23.719727 30 16 C 30 8.2802734 23.719727 2 16 2 z M 20.830078 5.0253906 C 25.046124 6.8883995 28 11.101949 28 16 C 28 22.617188 22.617188 28 16 28 C 11.52111 28 7.6161573 25.528529 5.5546875 21.882812 C 6.5160473 22.11435 7.5140903 22.25 8.546875 22.25 C 15.726562 22.25 21.546875 16.429688 21.546875 9.25 C 21.546875 7.7683114 21.290216 6.3500442 20.830078 5.0253906 z"/></svg>